# xmcd
#
# Track frame offsets:
#	150
#	14623
#	26295
#	37566
#	50405
#	64630
#	77185
#	88363
#	104564
#	116180
#	125725
#	139226
#	152810
#	167923
#	181684
#	194072
#	208194
#	221870
#	235106
#	247538
#
# Disc length: 3494 seconds
#
# Revision: 1
# Processed by: cddbd v1.5.2PL0 Copyright (c) Steve Scherf et al.
# Submitted via: audiograbber 1.83.01
#
DISCID=1e0da414
DTITLE=Various Artist - Inspirations Borrowed By Bob Dylan
DYEAR=2014
DGENRE=Blues
TTITLE0=Glen Gray And His Casa Loma Orchestra - Blue Moon
TTITLE1=Roy Hogsed - Cocaine Blues
TTITLE2=Hank Snow - A Fool Such As I
TTITLE3=Hank Williams - I Can't Get You Off My Mind
TTITLE4=Woody Guthrie - Pretty Boy Floyd
TTITLE5=Bukka White - Fixin' To Die
TTITLE6=Billy Grammer - Gotta Travel On
TTITLE7=Pete Seeger - The House Carpenter
TTITLE8=Clarence Ashley - Cuckoo Bird
TTITLE9=Ed McCurdy - Kentucky Moonshiner
TTITLE10=Horace Heidt And His Orchestra - Tomorrow Night
TTITLE11=Rolf Cahn And Eric von Schmidt - He Was A Friend Of Mine
TTITLE12=Jimmie Gordon - Delphia
TTITLE13=The Mississippi Sheiks - Sitting On Top Of The World
TTITLE14=Bradley Kincaid - Froggie Went A-Courtin'
TTITLE15=Blind Willie McTell - Broke Down Engine Blues
TTITLE16=Hambone Willie Newbern - Roll And Tumble Blues
TTITLE17=Blind Boy Fuller - Mama Let Me Lay It On You (Baby Let Me Follow You D
TTITLE17=own)
TTITLE18=Woody Guthrie - I Ain't Got No Home In This World Any More
TTITLE19=The Nat King Cole Trio - The Christmas Song (Chestnuts Roasting On An 
TTITLE19=Open Fire)
EXTD=CD 2-2\n\n40 covers of original songs that inspired Bob Dylan
EXTT0=Disk 2-2
EXTT1=
EXTT2=
EXTT3=
EXTT4=
EXTT5=
EXTT6=
EXTT7=
EXTT8=
EXTT9=
EXTT10=
EXTT11=
EXTT12=
EXTT13=
EXTT14=
EXTT15=
EXTT16=
EXTT17=
EXTT18=
EXTT19=
PLAYORDER=
